<?xml version="1.0" encoding="UTF-8" standalone="no"?>
<!-- Created with Inkscape (http://www.inkscape.org/) -->

<svg
   xmlns:dc="http://purl.org/dc/elements/1.1/"
   xmlns:cc="http://creativecommons.org/ns#"
   xmlns:rdf="http://www.w3.org/1999/02/22-rdf-syntax-ns#"
   xmlns:svg="http://www.w3.org/2000/svg"
   xmlns="http://www.w3.org/2000/svg"
   xmlns:sodipodi="http://sodipodi.sourceforge.net/DTD/sodipodi-0.dtd"
   xmlns:inkscape="http://www.inkscape.org/namespaces/inkscape"
   width="22.577778mm"
   height="15.165525mm"
   viewBox="0 0 80 53.736114"
   id="svg19507"
   version="1.1"
   inkscape:version="0.91 r13725"
   inkscape:export-filename="/Users/adammarsala/Desktop/slayer/images/warrior-legs.png"
   inkscape:export-xdpi="90"
   inkscape:export-ydpi="90"
   sodipodi:docname="warrior-legs.svg">
  <defs
     id="defs19509" />
  <sodipodi:namedview
     id="base"
     pagecolor="#ffffff"
     bordercolor="#666666"
     borderopacity="1.0"
     inkscape:pageopacity="0.0"
     inkscape:pageshadow="2"
     inkscape:zoom="2.8"
     inkscape:cx="36.178069"
     inkscape:cy="61.532612"
     inkscape:document-units="px"
     inkscape:current-layer="layer1"
     showgrid="false"
     fit-margin-top="0"
     fit-margin-left="0"
     fit-margin-right="0"
     fit-margin-bottom="0"
     inkscape:window-width="1276"
     inkscape:window-height="756"
     inkscape:window-x="4"
     inkscape:window-y="0"
     inkscape:window-maximized="1" />
  <metadata
     id="metadata19512">
    <rdf:RDF>
      <cc:Work
         rdf:about="">
        <dc:format>image/svg+xml</dc:format>
        <dc:type
           rdf:resource="http://purl.org/dc/dcmitype/StillImage" />
        <dc:title></dc:title>
      </cc:Work>
    </rdf:RDF>
  </metadata>
  <g
     inkscape:label="Layer 1"
     inkscape:groupmode="layer"
     id="layer1"
     transform="translate(-1790.5905,537.82811)">
    <g
       id="g4406"
       transform="translate(486.18108,-345.17919)">
      <path
         d="m 1376.7187,-139.61585 a 40,1.7128463 0 0 1 -55.736,0.37854 40,1.7128463 0 0 1 -9.1073,-2.38483 40,1.7128463 0 0 1 55.6486,-0.40143 40,1.7128463 0 0 1 9.6413,2.38099"
         sodipodi:open="true"
         sodipodi:end="0.61131204"
         sodipodi:start="0.63050194"
         sodipodi:ry="1.7128463"
         sodipodi:rx="40"
         sodipodi:cy="-140.62566"
         sodipodi:cx="1344.4094"
         sodipodi:type="arc"
         id="path19446-1"
         style="display:inline;opacity:1;fill:#e6e6e6;fill-opacity:0.87267085;fill-rule:nonzero;stroke:none;stroke-width:0;stroke-linecap:round;stroke-miterlimit:4;stroke-dasharray:none;stroke-opacity:0.63664599" />
      <g
         id="g4367">
        <g
           id="g4343">
          <g
             transform="translate(486.18111,-345.6473)"
             id="g4513">
            <path
               style="fill:none;fill-rule:evenodd;stroke:#000000;stroke-width:0.41857028px;stroke-linecap:butt;stroke-linejoin:miter;stroke-opacity:1"
               d="m 848.11981,190.57698 8.58792,0.21166 z"
               id="path9269-5"
               inkscape:connector-curvature="0" />
            <g
               id="g4493">
              <path
                 inkscape:connector-curvature="0"
                 id="path9271-4"
                 d="m 865.813,190.78864 6.82895,0 z"
                 style="fill:none;fill-rule:evenodd;stroke:#000000;stroke-width:0.41857028px;stroke-linecap:butt;stroke-linejoin:miter;stroke-opacity:1" />
              <g
                 transform="translate(475.72834,-384.12772)"
                 id="g23076">
                <g
                   id="g23058">
                  <path
                     inkscape:connector-curvature="0"
                     id="path4247-7"
                     d="m 384.91121,585.27253 -7.39063,-1.05829 z"
                     style="fill:#666666;fill-opacity:1;fill-rule:evenodd;stroke:#000000;stroke-width:1.25571084;stroke-linecap:butt;stroke-linejoin:miter;stroke-miterlimit:4;stroke-dasharray:none;stroke-opacity:1" />
                  <path
                     inkscape:connector-curvature="0"
                     id="path4249-9"
                     d="m 384.83835,584.65169 0.0718,4.56775 z"
                     style="fill:#666666;fill-opacity:1;fill-rule:evenodd;stroke:#000000;stroke-width:1.48486102;stroke-linecap:butt;stroke-linejoin:miter;stroke-miterlimit:4;stroke-dasharray:none;stroke-opacity:1" />
                  <path
                     inkscape:connector-curvature="0"
                     id="path4251-4"
                     d="m 384.98661,588.5989 -14.85816,0.22619 z"
                     style="fill:#666666;fill-opacity:1;fill-rule:evenodd;stroke:#000000;stroke-width:1.28326035;stroke-linecap:butt;stroke-linejoin:miter;stroke-miterlimit:4;stroke-dasharray:none;stroke-opacity:1" />
                  <path
                     inkscape:connector-curvature="0"
                     id="path4253-8"
                     d="m 370.76205,589.11131 1.17468,-5.183 z"
                     style="fill:#666666;fill-opacity:1;fill-rule:evenodd;stroke:#000000;stroke-width:1.33852673;stroke-linecap:butt;stroke-linejoin:miter;stroke-miterlimit:4;stroke-dasharray:none;stroke-opacity:1" />
                  <path
                     style="fill:#666666;fill-opacity:1;fill-rule:evenodd;stroke:#000000;stroke-width:1.3058449;stroke-linecap:butt;stroke-linejoin:miter;stroke-miterlimit:4;stroke-dasharray:none;stroke-opacity:1"
                     d="m 378.34714,584.28541 5.81142,-23.87839 z"
                     id="path4257-5"
                     inkscape:connector-curvature="0" />
                  <path
                     inkscape:connector-curvature="0"
                     id="path4263-5"
                     d="m 371.90369,584.21424 1.25641,-21.92183 z"
                     style="fill:#666666;fill-opacity:1;fill-rule:evenodd;stroke:#000000;stroke-width:1.25571084;stroke-linecap:butt;stroke-linejoin:miter;stroke-miterlimit:4;stroke-dasharray:none;stroke-opacity:1" />
                  <path
                     inkscape:connector-curvature="0"
                     id="path7076-5"
                     d="m 371.72311,588.08076 c 0,-0.0318 0.19493,-0.93784 0.43317,-2.01336 l 0.43317,-1.95551 0.22755,-4.30288 c 0.12516,-2.36659 0.24575,-4.47126 0.268,-4.67705 l 0.0404,-0.37416 3.3751,0.0223 c 1.8563,0.0122 3.38776,0.0352 3.40325,0.0511 0.0155,0.0158 -0.44427,1.98405 -1.02168,4.37379 -0.85015,3.51855 -1.07245,4.34507 -1.16873,4.34536 -0.12889,3.7e-4 -0.16919,0.14054 -0.24944,0.86752 l -0.0503,0.45558 3.33705,0.47701 3.33705,0.477 0,1.05742 0,1.05742 -3.89596,0.0496 c -2.14278,0.0273 -4.92482,0.0715 -6.18232,0.0982 -1.2575,0.0268 -2.28637,0.0226 -2.28637,-0.009 z"
                     style="opacity:1;fill:#502d16;fill-opacity:1;fill-rule:nonzero;stroke:#000000;stroke-width:0.06659412;stroke-linecap:round;stroke-miterlimit:4;stroke-dasharray:none;stroke-opacity:1" />
                </g>
                <g
                   id="g23067">
                  <path
                     inkscape:connector-curvature="0"
                     id="path4227-1"
                     d="m 399.17515,558.66397 -3.4736,24.79434 0,0 z"
                     style="fill:#666666;fill-opacity:1;fill-rule:evenodd;stroke:#000000;stroke-width:1.25571084;stroke-linecap:butt;stroke-linejoin:miter;stroke-miterlimit:4;stroke-dasharray:none;stroke-opacity:1" />
                  <path
                     inkscape:connector-curvature="0"
                     id="path4229-6"
                     d="m 394.96475,583.40112 9.45548,2.15539 z"
                     style="fill:#666666;fill-opacity:1;fill-rule:evenodd;stroke:#000000;stroke-width:1.3084116;stroke-linecap:butt;stroke-linejoin:miter;stroke-miterlimit:4;stroke-dasharray:none;stroke-opacity:1" />
                  <path
                     inkscape:connector-curvature="0"
                     id="path4233-5"
                     d="m 404.27469,585.04576 0,3.32607 z"
                     style="fill:#666666;fill-opacity:1;fill-rule:evenodd;stroke:#000000;stroke-width:1.3693521;stroke-linecap:butt;stroke-linejoin:miter;stroke-miterlimit:4;stroke-dasharray:none;stroke-opacity:1" />
                  <path
                     inkscape:connector-curvature="0"
                     id="path4235-9"
                     d="m 404.94057,588.29632 -16.77821,0.2266 z"
                     style="fill:#666666;fill-opacity:1;fill-rule:evenodd;stroke:#000000;stroke-width:1.26084578;stroke-linecap:butt;stroke-linejoin:miter;stroke-miterlimit:4;stroke-dasharray:none;stroke-opacity:1" />
                  <path
                     inkscape:transform-center-x="0.17857143"
                     inkscape:connector-curvature="0"
                     id="path4237-3"
                     d="m 388.72757,588.52043 0.6448,-3.54769 z"
                     style="fill:#666666;fill-opacity:1;fill-rule:evenodd;stroke:#000000;stroke-width:1.25571084;stroke-linecap:butt;stroke-linejoin:miter;stroke-miterlimit:4;stroke-dasharray:none;stroke-opacity:1" />
                  <path
                     inkscape:connector-curvature="0"
                     id="path4239-8"
                     d="m 389.4195,585.42372 1.40423,-23.43368 z"
                     style="fill:#666666;fill-opacity:1;fill-rule:evenodd;stroke:#000000;stroke-width:1.25571084;stroke-linecap:butt;stroke-linejoin:miter;stroke-miterlimit:4;stroke-dasharray:none;stroke-opacity:1" />
                  <path
                     inkscape:connector-curvature="0"
                     id="path7078-6"
                     d="m 389.54116,587.69687 c 0.0174,-0.0785 0.11421,-0.59517 0.21519,-1.14822 0.10098,-0.55304 0.21365,-1.02454 0.25038,-1.04775 0.0367,-0.0232 0.20978,-2.43308 0.38456,-5.35524 l 0.31777,-5.31303 2.76193,-0.0196 c 1.69998,-0.0121 2.76193,0.008 2.76193,0.0512 0,0.28002 -1.04822,7.53799 -1.13564,7.86331 -0.0608,0.22637 -0.15614,0.62041 -0.2118,0.87563 l -0.10119,0.46405 0.66944,0.15787 c 0.36819,0.0868 2.33208,0.53549 4.3642,0.99703 l 3.69476,0.83918 0.0207,0.79084 0.0206,0.79085 -3.60567,0.0496 c -1.98311,0.0273 -5.14311,0.0715 -7.02221,0.0983 -3.3358,0.0476 -3.41579,0.0453 -3.38495,-0.094 z"
                     style="opacity:1;fill:#502d16;fill-opacity:1;fill-rule:nonzero;stroke:#000000;stroke-width:0.06659412;stroke-linecap:round;stroke-miterlimit:4;stroke-dasharray:none;stroke-opacity:1" />
                </g>
              </g>
            </g>
          </g>
          <path
             inkscape:connector-curvature="0"
             id="path7074-3"
             d="m 1335.0232,-155.1856 c 3e-4,-0.072 0.1318,-2.38716 0.2921,-5.14475 0.1604,-2.75759 0.2918,-5.12829 0.2921,-5.26823 l 5e-4,-0.25444 0.2288,0.32927 c 0.1259,0.1811 0.2554,0.35905 0.2879,0.39546 0.033,0.0368 0.2703,-0.0881 0.5353,-0.28149 l 0.4764,-0.34768 -3.8476,-5.51805 c -9.1044,-13.05701 -9.0213,-12.93567 -9.0196,-13.16042 0,-0.2631 0.7119,-6.396 0.7438,-6.42574 0.013,-0.0117 5.6939,-0.0348 12.6253,-0.0514 11.8469,-0.0283 12.6024,-0.0224 12.6024,0.0977 0,0.0703 0.027,0.13904 0.061,0.15276 0.034,0.0137 2.3163,4.47501 5.0726,9.91398 l 5.0115,9.88904 -1.103,7.90245 -1.103,7.90245 -2.7624,0 -2.7625,0 -4e-4,-0.24321 c -8e-4,-0.38999 0.5843,-10.23739 0.6298,-10.59962 l 0.041,-0.32883 0.5628,0.57229 0.5629,0.57228 0.46,-0.47476 0.4601,-0.47478 -5.9858,-6.01203 c -3.2922,-3.30663 -6.8912,-6.92571 -7.9978,-8.04242 -1.1066,-1.11671 -3.0933,-3.11856 -4.415,-4.44856 l -2.403,-2.41818 -0.4724,0.47724 -0.4724,0.47723 2.8246,2.84364 2.8245,2.84365 2.9953,5.67882 2.9952,5.67881 -1.6887,6.94922 -1.6886,6.94921 -3.4323,0 c -3.2204,0 -3.4324,-0.008 -3.4319,-0.13096 z"
             style="opacity:1;fill:#666666;fill-opacity:1;fill-rule:nonzero;stroke:#000000;stroke-width:0.06659412;stroke-linecap:round;stroke-miterlimit:4;stroke-dasharray:none;stroke-opacity:1" />
        </g>
        <g
           id="g4311">
          <g
             id="g4306">
            <g
               id="g23029"
               transform="translate(961.90945,-729.77502)">
              <path
                 inkscape:connector-curvature="0"
                 id="path4241-6"
                 d="m 372.19931,543.31869 20.7677,20.86353 z"
                 style="fill:#666666;fill-opacity:1;fill-rule:evenodd;stroke:#000000;stroke-width:1.25571084;stroke-linecap:butt;stroke-linejoin:miter;stroke-miterlimit:4;stroke-dasharray:none;stroke-opacity:1" />
            </g>
            <path
               style="fill:#666666;fill-opacity:1;fill-rule:evenodd;stroke:#000000;stroke-width:1.27803028;stroke-linecap:butt;stroke-linejoin:miter;stroke-miterlimit:4;stroke-dasharray:none;stroke-opacity:1"
               d="m 1339.651,-181.01511 6.4314,12.17327 z"
               id="path4243-1"
               inkscape:connector-curvature="0" />
          </g>
          <g
             id="g4296">
            <g
               id="g4292">
              <path
                 inkscape:connector-curvature="0"
                 id="path4261-7"
                 d="m 1323.6,-184.4057 13.0411,18.97768 z"
                 style="fill:#666666;fill-opacity:1;fill-rule:evenodd;stroke:#000000;stroke-width:1.10591447;stroke-linecap:butt;stroke-linejoin:miter;stroke-miterlimit:4;stroke-dasharray:none;stroke-opacity:1" />
              <path
                 inkscape:connector-curvature="0"
                 id="path22977"
                 d="m 1323.681,-183.96706 0.8319,-8.62366 z"
                 style="fill:none;fill-rule:evenodd;stroke:#000000;stroke-width:1.21227658px;stroke-linecap:butt;stroke-linejoin:miter;stroke-opacity:1" />
            </g>
            <g
               id="g4286">
              <path
                 sodipodi:nodetypes="ccccccccccccc"
                 inkscape:connector-curvature="0"
                 id="path4461"
                 d="m 1325.0557,-191.31067 c 0.01,-0.22035 0.027,-0.58096 0.039,-0.80156 l 0.022,-0.40115 12.7974,0.006 13.2707,0.0953 -0.041,0.3863 c -0.3186,0.45043 -1.1218,0.52606 -1.0766,0.75981 0.027,0.13986 0.043,0.26375 0.034,0.27481 -0.01,0.012 -0.5671,-0.014 -1.2423,-0.0563 -1.2871,-0.0805 -15.6214,-0.0279 -20.8037,0.0763 l -3.0163,0.0607 0.017,-0.4004 z"
                 style="opacity:1;fill:#e9ddaf;fill-opacity:1;fill-rule:nonzero;stroke:#666666;stroke-width:0.00742244;stroke-linecap:round;stroke-miterlimit:4;stroke-dasharray:none;stroke-opacity:1" />
              <g
                 id="g4282">
                <path
                   style="fill:#666666;fill-opacity:1;fill-rule:evenodd;stroke:#000000;stroke-width:1.26981592;stroke-linecap:butt;stroke-linejoin:miter;stroke-miterlimit:4;stroke-dasharray:none;stroke-opacity:1"
                   d="m 1350.8009,-191.13235 10.4268,20.47278 z"
                   id="path4225-3"
                   inkscape:connector-curvature="0" />
                <path
                   style="fill:none;fill-rule:evenodd;stroke:#000000;stroke-width:1.16428399px;stroke-linecap:butt;stroke-linejoin:miter;stroke-opacity:1"
                   d="m 1350.7116,-190.7738 0.2752,-1.63517 z"
                   id="path4280"
                   inkscape:connector-curvature="0" />
              </g>
            </g>
          </g>
        </g>
      </g>
    </g>
  </g>
</svg>
